<svg xmlns="http://www.w3.org/2000/svg" viewBox="0 0 116.78 213.24"><defs><style>.cls-1{isolation:isolate;}.cls-2{fill:#a7d8ea;}.cls-3{fill:#89ceec;}.cls-4{fill:#5799d3;}.cls-5{fill:#4191cb;}.cls-6{mix-blend-mode:multiply;}.cls-7{mix-blend-mode:screen;}.cls-8{fill:#add0e3;}.cls-9{fill:#297ac1;}.cls-10{fill:#1775b9;}</style></defs><title>1111</title><g class="cls-1"><g id="Layer_2" data-name="Layer 2"><g id="layer"><path class="cls-2" d="M113.66,180.36v-2.21c0-1.25,1.37-1.41,2.23-2.31,1.18-1.22,1.18-5.56,0-6.78-.86-.89-2.23-1.06-2.23-2.31v-2.21c0-1.25,2.23-16.42,2.23-17.29V92.7c0-.87-2.23-9.38-2.23-10.63V79.85c0-1.25,1.85-2.84,2.23-3.89,2-5.53-2.06-11.28-5.52-15.51C105.88,55,77.11,39.78,70.26,28c-2.2-3.77-1.49-16.9-1.49-16.9H48s.71,13.14-1.49,16.9c-7,11.91-36.12,27.17-40.6,33C2.76,65.19-1,70.7.88,76,1.27,77,3.12,78.6,3.12,79.85v2.22C3.12,83.32.88,91.83.88,92.7v54.55c0,.87,2.24,16,2.24,17.29v2.21c0,1.25-1.37,1.42-2.24,2.31-1.17,1.22-1.17,5.56,0,6.78.87.9,2.24,1.06,2.24,2.31v2.21c0,1.26-2.24,4.65-2.24,5.89v2.47A24.52,24.52,0,0,0,25.4,213.24h66a24.52,24.52,0,0,0,24.52-24.52v-2.47C115.89,185,113.66,181.62,113.66,180.36Z"/><path class="cls-2" d="M25.4,205A16.29,16.29,0,0,1,9.14,188.72v-1.2l.3-.62a14.76,14.76,0,0,0,1.94-6.54v-2.21a9.29,9.29,0,0,0-1.89-5.7,9.29,9.29,0,0,0,1.89-5.7v-2.21c0-1.07-.19-2.62-1.35-11-.33-2.4-.78-5.62-.89-6.63V93.34c.16-.75.5-2.24.75-3.28,1.12-4.8,1.49-6.48,1.49-8V79.85A11.8,11.8,0,0,0,8.62,72.7c.09-.73.73-2.54,3.86-6.62,1.19-1.38,7.17-5.43,11.54-8.4,11.44-7.75,24.4-16.54,29.63-25.48,1.77-3,2.5-7.87,2.7-12.8h4.08c.2,4.93.93,9.76,2.7,12.8,5.26,9,18.39,17.86,30,25.66,4.11,2.77,9.73,6.55,10.92,7.86,3.45,4.22,4.09,6.16,4.16,7a11.76,11.76,0,0,0-2.78,7.17v2.22c0,1.51.37,3.19,1.49,8,.24,1,.59,2.53.75,3.28V146.9c-.11,1-.56,4.23-.89,6.63-1.16,8.39-1.35,9.94-1.35,11v2.21a9.34,9.34,0,0,0,1.88,5.7,9.34,9.34,0,0,0-1.88,5.7v2.21a14.76,14.76,0,0,0,1.94,6.54l.3.62v1.2A16.29,16.29,0,0,1,91.37,205Z"/><path class="cls-3" d="M115.89,174.68c1.18-1.22,1.18-5.57,0-6.79-.86-.89-2.23-1-2.23-2.3v-2.22c0-1.25,2.23-16.42,2.23-17.29V91.53c0-.87-2.23-9.38-2.23-10.63V78.69c0-1.26,1.85-2.85,2.23-3.9,2-5.52-2.06-11.28-5.52-15.5-4.49-5.51-33.26-20.67-40.11-32.42C68.06,23.11,68.77,10,68.77,10H58.35v202.1h33a24.51,24.51,0,0,0,24.52-24.52v-2.47c0-1.24-2.23-4.63-2.23-5.88V177C113.66,175.73,115,175.57,115.89,174.68Z"/><rect class="cls-4" x="0.88" y="98.75" width="115.01" height="42.96"/><rect class="cls-5" x="58.35" y="98.75" width="57.54" height="42.96"/><g class="cls-6"><path class="cls-3" d="M91.37,211.48h-66a.57.57,0,0,1-.58-.57.58.58,0,0,1,.58-.58h66A21.64,21.64,0,0,0,113,188.72v-2.29c-.12-.37-.58-1.33-.81-1.8a10.78,10.78,0,0,1-1.43-4.27v-2.21a4.68,4.68,0,0,1,2.62-4.05l.34-.2a6.91,6.91,0,0,0,0-2.86l-.34-.22a4.69,4.69,0,0,1-2.66-4.07v-2.21c0-.75.33-3.23,1.3-10.28.39-2.83.91-6.62.94-7V92.79c-.06-.4-.52-2.35-.85-3.77l0-.18a43.14,43.14,0,0,1-1.35-6.77V79.85a7.06,7.06,0,0,1,1.89-4.2c.17-.22.5-.66.56-.76,1.41-3.88-1.77-8.55-5.07-12.59-1.4-1.71-6.56-5.18-12-8.86-10.57-7.12-23.71-16-28.36-23.93-2-3.41-2.09-11.52-2-16a.55.55,0,0,1,.6-.56.57.57,0,0,1,.56.59c-.19,7.5.47,13.12,1.82,15.43,4.51,7.74,17.53,16.51,28,23.55,5.55,3.73,10.78,7.26,12.29,9.1,3.5,4.29,6.87,9.29,5.23,13.78a6.73,6.73,0,0,1-.67,1,6.3,6.3,0,0,0-1.68,3.54v2.22a46.25,46.25,0,0,0,1.32,6.51l0,.18c.36,1.52.8,3.42.87,3.95v54.54c0,.48-.43,3.37-.94,7.09-.92,6.65-1.3,9.51-1.3,10.2v2.21a3.54,3.54,0,0,0,2.06,3.06,3.9,3.9,0,0,1,.67.47l.09.11a6.44,6.44,0,0,1-.08,4.22.58.58,0,0,1-.26.23l-.41.25a3.52,3.52,0,0,0-2.07,3.06v2.21a9.81,9.81,0,0,0,1.3,3.72,15.73,15.73,0,0,1,.92,2.13.78.78,0,0,1,0,.14v2.37A22.79,22.79,0,0,1,91.37,211.48Z"/></g><g class="cls-7"><path class="cls-2" d="M8.07,203.14a.58.58,0,0,1-.45-.22,22.78,22.78,0,0,1-5-14.2v-2.37a.71.71,0,0,1,0-.14,17,17,0,0,1,.93-2.13,10,10,0,0,0,1.29-3.72v-2.21a3.52,3.52,0,0,0-2.06-3.05,4,4,0,0,1-.67-.47.83.83,0,0,1-.08-.12,6.38,6.38,0,0,1,.08-4.22.47.47,0,0,1,.23-.21l.44-.27a3.54,3.54,0,0,0,2.06-3.06v-2.21c0-.69-.38-3.55-1.28-10.12-.53-3.8-.92-6.7-.95-7.21V92.79c.08-.63.54-2.59.91-4.17a47.12,47.12,0,0,0,1.32-6.55V79.85a6.21,6.21,0,0,0-1.64-3.5,6.67,6.67,0,0,1-.69-1C1,71.2,3.93,66.55,7.31,62.13c1.55-2,7.14-5.81,13.05-9.82C30.7,45.3,43.55,36.59,48,28.92c1.35-2.31,2-7.93,1.82-15.43a.6.6,0,0,1,.57-.6.56.56,0,0,1,.6.57c.12,4.53,0,12.64-2,16.05-4.61,7.9-17.58,16.69-28,23.75-5.84,4-11.36,7.7-12.79,9.58C5.06,67,2.3,71.33,3.61,74.92l.54.72A7.19,7.19,0,0,1,6,79.85v2.22c0,.93-.39,2.68-1.35,6.77-.33,1.44-.82,3.53-.89,4v54.31c0,.47.55,4.25.94,7,1,7.11,1.3,9.58,1.3,10.34v2.21a4.68,4.68,0,0,1-2.62,4.05l-.34.21a6.86,6.86,0,0,0,0,2.85c.09.07.24.15.37.23A4.7,4.7,0,0,1,6,178.15v2.21a10.47,10.47,0,0,1-1.41,4.23c-.23.48-.7,1.46-.83,1.85v2.28a21.37,21.37,0,0,0,4.73,13.47.59.59,0,0,1-.09.82A.58.58,0,0,1,8.07,203.14Z"/></g><g class="cls-6"><path class="cls-3" d="M113.89,75.44H8.92a.58.58,0,0,1,0-1.16h105a.58.58,0,0,1,0,1.16Z"/></g><g class="cls-7"><path class="cls-8" d="M106.48,93.27H3.16a.58.58,0,1,1,0-1.16H106.48a.58.58,0,1,1,0,1.16Z"/></g><g class="cls-6"><path class="cls-3" d="M108.2,175.73H17.46a.58.58,0,0,1,0-1.16H108.2a.58.58,0,0,1,0,1.16Z"/></g><g class="cls-7"><path class="cls-8" d="M97.41,168.32H6.67a.6.6,0,0,1-.59-.59.59.59,0,0,1,.59-.58H97.41a.58.58,0,0,1,.58.58A.59.59,0,0,1,97.41,168.32Z"/></g><g class="cls-7"><path class="cls-8" d="M97.41,186.19H6.67a.58.58,0,1,1,0-1.16H97.41a.58.58,0,0,1,0,1.16Z"/></g><g class="cls-7"><path class="cls-2" d="M22.59,189.11V187.9l.21-.63a19.27,19.27,0,0,0,1.41-6.62v-2.24a12.16,12.16,0,0,0-1.36-5.77,12.16,12.16,0,0,0,1.36-5.77v-2.24c0-1.09-.13-2.65-1-11.15-.24-2.43-.56-5.69-.64-6.71V92.55c.11-.77.36-2.27.54-3.33a53.9,53.9,0,0,0,1.08-8.09V78.89a14.74,14.74,0,0,0-2-7.24c.06-.75.53-2.57,2.8-6.7.87-1.4,5.22-5.51,8.4-8.51C41.72,48.59,51.15,39.7,55,30.65c1.29-3.08,1.81-8,2-13h-.56c-.2,5-.93,9.89-2.7,13C48.42,39.7,35.46,48.59,24,56.44c-4.37,3-10.35,7.11-11.54,8.51-3.13,4.13-3.77,6-3.86,6.7a12,12,0,0,1,2.76,7.24v2.24c0,1.53-.37,3.23-1.49,8.09-.25,1.06-.59,2.56-.75,3.33v54.22c.11,1,.56,4.28.89,6.71,1.16,8.5,1.35,10.06,1.35,11.15v2.24a9.48,9.48,0,0,1-1.89,5.77,9.48,9.48,0,0,1,1.89,5.77v2.24a15.1,15.1,0,0,1-1.94,6.62l-.3.63v1.21A16.39,16.39,0,0,0,25.4,205.58h9C27.89,205.58,22.59,198.19,22.59,189.11Z"/></g><g class="cls-6"><path class="cls-3" d="M105.4,81.13V78.89a12,12,0,0,1,2.78-7.26c-.07-.81-.71-2.78-4.16-7-1.19-1.33-6.81-5.16-10.92-8-11.58-7.89-24.71-16.85-30-26-1.77-3.07-2.5-8-2.7-13h-.55c.14,5,.67,9.89,2,13,3.82,9.13,13.37,18.09,21.79,26,3,2.8,7.07,6.63,7.94,8,2.5,4.27,3,6.24,3,7a15.47,15.47,0,0,0-2,5.89H66.05a6.55,6.55,0,0,0,0,13.1H93.89c.12.73.24,1.46.31,1.93v54.22c-.09,1-.41,4.28-.65,6.71-.84,8.5-1,10.06-1,11.15v2.24a12.06,12.06,0,0,0,1.37,5.77,11.33,11.33,0,0,0-1.25,4H63.33a3.81,3.81,0,0,0,0,7.61H93c.27,1.07.61,2.07,1,3.05.07.19.14.41.22.63v1.21c0,9.08-5.31,16.47-11.83,16.47h9a16.39,16.39,0,0,0,16.27-16.47V187.9c-.1-.22-.21-.44-.3-.63a15.1,15.1,0,0,1-1.94-6.62v-2.24a9.52,9.52,0,0,1,1.88-5.77,9.52,9.52,0,0,1-1.88-5.77v-2.24c0-1.09.19-2.65,1.35-11.15.33-2.43.78-5.69.89-6.71V92.55c-.16-.77-.51-2.27-.75-3.33C105.77,84.36,105.4,82.66,105.4,81.13Z"/></g><rect class="cls-9" x="46.23" width="24.71" height="23.12" rx="1.31"/><path class="cls-10" d="M69.63,0H58.33V23.12h11.3a1.31,1.31,0,0,0,1.31-1.31V1.31A1.31,1.31,0,0,0,69.63,0Z"/><path class="cls-9" d="M72.28,5.22H44.89c-.9,0-1.62.53-1.62,1.18v.95c0,.65.72,1.18,1.62,1.18H72.28c.89,0,1.62-.53,1.62-1.18V6.4C73.9,5.75,73.17,5.22,72.28,5.22Z"/><path class="cls-10" d="M72.28,5.22H58.36V8.53H72.28c.89,0,1.62-.53,1.62-1.18V6.4C73.9,5.75,73.17,5.22,72.28,5.22Z"/></g></g></g></svg>