<svg xmlns="http://www.w3.org/2000/svg" viewBox="0 0 832.67 1545.41"><defs><style>.cls-1{isolation:isolate;}.cls-2{fill:#ffe082;}.cls-3{fill:#5d4037;}.cls-4{fill:#424242;}.cls-5{fill:#9e9e9e;}.cls-6{fill:#757575;}.cls-7{fill:#616161;}.cls-8{fill:#fff;}.cls-9{fill:#ffd54f;}.cls-10{fill:#dbb744;}.cls-11{fill:#474747;}.cls-12{fill:#eee;}.cls-13{fill:#4c4c4c;}.cls-14{fill:#e0e0e0;mix-blend-mode:multiply;}</style></defs><title>Asset 1</title><g class="cls-1"><g id="Layer_2" data-name="Layer 2"><g id="machine"><rect class="cls-2" x="14.49" y="115.28" width="803.69" height="1419.98"/><rect class="cls-3" x="591.13" y="229.24" width="209.03" height="474.83"/><rect class="cls-3" x="591.13" y="796.07" width="209.03" height="301.19"/><path class="cls-3" d="M569.5,706.33V115.28H57.74V706.33S155,764,313.62,764,569.5,706.33,569.5,706.33Z"/><rect class="cls-4" x="57.74" y="796.07" width="511.77" height="301.19"/><rect class="cls-5" x="68.44" y="807.25" width="490.36" height="278.84"/><rect class="cls-6" x="158.53" y="807.25" width="310.18" height="278.84"/><polygon class="cls-7" points="161.25 1004.6 68.44 1086.09 558.8 1086.09 465.99 1004.6 161.25 1004.6"/><path class="cls-8" d="M312.57,383.29c10.2,6.22,36.65,6.22,46.85,0,23.56-14.36,20.42-52.56,20.42-75.59H292.15C292.15,329.62,289,368.93,312.57,383.29Z"/><rect class="cls-8" x="316.18" y="381.76" width="39.63" height="7.35" transform="translate(671.99 770.87) rotate(180)"/><path class="cls-8" d="M310.25,374.16l2.86-7.56-25.9-9.82a7.18,7.18,0,0,1-4.55-5.39l-3.52-18a7.24,7.24,0,0,1,8.55-8.5l8.56,1.73,1.6-7.93-8.56-1.73a15.34,15.34,0,0,0-18.09,18l3.52,18a15.27,15.27,0,0,0,9.62,11.41Z"/><path class="cls-8" d="M389.14,393.31c.3,1.44-22.58,6.89-51.36,6.83s-51.67-5.39-51.36-6.83,23.16,1.32,51.36,1.24C366,394.63,388.87,391.72,389.14,393.31Z"/><path class="cls-8" d="M154.59,526.67a51.07,51.07,0,0,1,3.4-17.75,67,67,0,0,1,8.59-16.27A48.34,48.34,0,0,1,178.47,481q6.71-4.56,12.87-4.57c5.48,0,8.21,2.6,8.21,7.77a27.42,27.42,0,0,1-3.43,12.28q-3.44,6.74-6.92,6.74a3,3,0,0,1-2.76-2.06,57.8,57.8,0,0,0,6.42-9.1q3.12-5.35,3.12-8.84c0-2.68-1.46-4-4.37-4q-6.15,0-13.24,8a67.61,67.61,0,0,0-11.81,19.59q-4.73,11.6-4.72,21.42A22.59,22.59,0,0,0,165,540.46a10.42,10.42,0,0,0,9.45,5q6.87,0,13.74-5.63a37.87,37.87,0,0,0,10.52-13.56l1.25.89a47.67,47.67,0,0,1-12,15.4,24,24,0,0,1-15.65,5.93q-8.88,0-13.27-6.33A26.47,26.47,0,0,1,154.59,526.67Z"/><path class="cls-8" d="M195.89,535.42A22.77,22.77,0,0,1,199.15,524c2.18-3.78,4.51-5.68,7-5.68a4.94,4.94,0,0,1,1.87.45q-1.69,1.43-4,7.11t-2.32,8.89c0,3.52,1.07,5.27,3.22,5.27q3.93,0,9.56-7.33a13.48,13.48,0,0,1-3.89-5.36,17.68,17.68,0,0,1-1.38-6.88,13.48,13.48,0,0,1,2.37-8,7.43,7.43,0,0,1,6.39-3.33q6.17,0,6.16,7t-6,15.91a6.88,6.88,0,0,0,3.4.89,10.89,10.89,0,0,0,5.36-1.56,9.84,9.84,0,0,0,4.2-4.87l1.08.89a12.12,12.12,0,0,1-4.83,5.81,12.38,12.38,0,0,1-6.43,1.88,9.87,9.87,0,0,1-4.3-.9q-7.14,9.39-13.67,9.39c-2.44,0-4.23-.75-5.36-2.23A9.49,9.49,0,0,1,195.89,535.42Zm17.16-14.67q0,6.07,3,9.65,5.17-7.68,5.18-13.76,0-5-2.68-5-2,0-3.75,2.73A11.29,11.29,0,0,0,213.05,520.75Z"/><path class="cls-8" d="M223.33,557.84q0-6.89,3.93-20.47a259.6,259.6,0,0,1,9.56-27.17,131,131,0,0,1,12.56-23.73q6.93-10.14,12.2-10.15c2,0,3,1.34,3,4q0,7.23-7.37,17.15a71.61,71.61,0,0,1-16.49,16.25q-.63,1.42-1.7,4.46c1.25.3,2,1.25,2.23,2.86.3,2,.54,3.57.72,4.64a30.77,30.77,0,0,0,.89,3.7,10.45,10.45,0,0,0,1.34,3.08,6.76,6.76,0,0,0,2,1.74,5.36,5.36,0,0,0,2.86.76,7,7,0,0,0,5.05-2.05,34.35,34.35,0,0,0,4.87-6.7l1.34.9a18.77,18.77,0,0,1-5.45,7.58,10.34,10.34,0,0,1-6.26,2.59,9.75,9.75,0,0,1-6.61-2.95,54.34,54.34,0,0,1-4.43,21.37q-4.34,10-9.34,10a4.44,4.44,0,0,1-3.39-1.74C223.83,562.8,223.33,560.76,223.33,557.84Zm5.54-.72c0,2.86.56,4.29,1.7,4.29q2.49,0,5.81-9.51t3.3-16.58q0-4.47-3-10.44Q228.87,547.74,228.87,557.12Zm13.32-47.06a89.44,89.44,0,0,0,13.49-15.39q5.46-8,5.45-11a1.1,1.1,0,0,0-1.25-1.25q-3.3,0-8,7.72A134.49,134.49,0,0,0,242.19,510.06Z"/><path class="cls-8" d="M251.21,557.84q0-6.89,3.94-20.47a259.6,259.6,0,0,1,9.56-27.17,130.33,130.33,0,0,1,12.56-23.73q6.93-10.14,12.2-10.15c2,0,3,1.34,3,4q0,7.23-7.38,17.15a71.22,71.22,0,0,1-16.49,16.25q-.61,1.42-1.7,4.46c1.26.3,2,1.25,2.24,2.86.3,2,.54,3.57.71,4.64a31,31,0,0,0,.9,3.7,10.2,10.2,0,0,0,1.34,3.08,6.63,6.63,0,0,0,2,1.74A5.33,5.33,0,0,0,277,535a7,7,0,0,0,5.06-2.05,34.77,34.77,0,0,0,4.87-6.7l1.34.9a18.69,18.69,0,0,1-5.46,7.58,10.32,10.32,0,0,1-6.25,2.59,9.77,9.77,0,0,1-6.62-2.95,54.33,54.33,0,0,1-4.42,21.37q-4.34,10-9.34,10a4.47,4.47,0,0,1-3.4-1.74Q251.22,562.22,251.21,557.84Zm5.55-.72c0,2.86.56,4.29,1.69,4.29q2.51,0,5.81-9.51t3.31-16.58q0-4.47-3-10.44Q256.76,547.74,256.76,557.12Zm13.31-47.06a89.51,89.51,0,0,0,13.5-15.39q5.44-8,5.45-11a1.11,1.11,0,0,0-1.25-1.25q-3.31,0-8,7.72A135.42,135.42,0,0,0,270.07,510.06Z"/><path class="cls-8" d="M283.93,534.24q0-8.22,7.51-17t15.2-8.76q5.53,0,5.53,5.45,0,6.52-6.94,11.53a30.56,30.56,0,0,1-15.14,5.81,14,14,0,0,0-.35,3.22q0,7.51,7,7.51a16,16,0,0,0,9.18-3.22,33.63,33.63,0,0,0,8.29-8.4,29.32,29.32,0,0,1,8-14.17q6.3-6.48,13-6.48,5.53,0,5.53,5.46,0,6.43-6.32,10.85a29.86,29.86,0,0,1-14.51,5.23,14.58,14.58,0,0,0-.35,3.22q0,8,6.85,8,5.44,0,11.17-4.74a36.3,36.3,0,0,0,9.2-11.53l1.08.8a32.89,32.89,0,0,1-10.1,13q-6.53,5-13.22,5-5.22,0-8-3.06a11,11,0,0,1-2.79-7.67v-.44a29.31,29.31,0,0,1-8.82,7.89,20.19,20.19,0,0,1-10.07,2.83q-5.29,0-8.13-2.88A10.09,10.09,0,0,1,283.93,534.24Zm6.61-4.64a43.16,43.16,0,0,0,12-6.71q5.73-4.47,5.74-9.56c0-1.37-.63-2.06-1.87-2.06q-4.19,0-9.07,5.86A33.57,33.57,0,0,0,290.54,529.6Zm29.85,0a67.79,67.79,0,0,0,7.25-3.13A23.71,23.71,0,0,0,334,521.6a9.7,9.7,0,0,0,3-6.75c0-1.55-.68-2.33-2-2.33-2.72,0-5.53,1.75-8.4,5.23A32,32,0,0,0,320.39,529.6Z"/><path class="cls-8" d="M367.67,535.94q0-7.68,5.19-21.54a24.72,24.72,0,0,1-3.22-.71v-1.61c2.15.24,3.46.35,3.93.35A112.48,112.48,0,0,1,382,494.78q4.51-7.45,7.1-7.46a1.87,1.87,0,0,1,1.3.54,1.83,1.83,0,0,1,.58,1.43q0,1.33-1.74,4.64t-4.92,8.85q-3.16,5.55-5.23,9.92h3.31q7.43,0,12.78-.53v1.61a143.37,143.37,0,0,1-15.28,1.07h-1.79q-4.92,11.17-4.91,19.39c0,2.68.38,4.56,1.16,5.63a4.38,4.38,0,0,0,3.84,1.61q4.56,0,9-4.06a36.59,36.59,0,0,0,7.95-11.22l1.16.89a34.77,34.77,0,0,1-8.93,12.74q-5.64,5-11.8,5Q367.67,544.79,367.67,535.94Z"/><path class="cls-8" d="M393.06,535.49a33,33,0,0,1,1.87-9.38,46.36,46.36,0,0,1,5-10.82q3.12-4.9,6-4.91a1.74,1.74,0,0,1,2,2q0,1.08-2.32,4.93T400.92,526a20.46,20.46,0,0,0-2.32,8.56c0,2.1.34,3.52,1,4.26A4.34,4.34,0,0,0,403,540q7,0,13.76-13.7l.81.89a25.7,25.7,0,0,1-7.38,11.67A15.53,15.53,0,0,1,399.94,543a6.34,6.34,0,0,1-5.1-2.1A8.05,8.05,0,0,1,393.06,535.49ZM407,499.12a4,4,0,0,1,2.15-3.22,7.78,7.78,0,0,1,4.37-1.43c2,0,3,.89,3,2.68a4.43,4.43,0,0,1-1.83,3.35,6,6,0,0,1-4,1.57C408.22,502.07,407,501.08,407,499.12Z"/><path class="cls-8" d="M411.91,541.28a46.47,46.47,0,0,1,1.55-4.76q1.55-4.41,3.09-10a36.66,36.66,0,0,0,1.53-9.13,5.31,5.31,0,0,1,4.11-1.9,2.11,2.11,0,0,1,2.42,2.34q0,2.41-2.33,10.18a66.79,66.79,0,0,1,9.41-12.08q5-5.06,9.4-5.05c3.13,0,4.7,2.31,4.7,6.95a34.41,34.41,0,0,1-2.7,12.62q7.64-13.77,14.89-13.76,5.06,0,5.06,5.64a31.26,31.26,0,0,1-1.61,7.89,32.21,32.21,0,0,0-1.61,7.17c0,2,.87,3.07,2.61,3.07q5.55,0,12-14.25l1.07,1.26A37.87,37.87,0,0,1,469,538.75c-2.69,3.13-5.64,4.7-8.88,4.7a5.62,5.62,0,0,1-4.53-1.82A7,7,0,0,1,454,537a25.58,25.58,0,0,1,1.34-6.76,25.37,25.37,0,0,0,1.34-6.05c0-2.16-.86-3.25-2.59-3.25q-2,0-4.4,2.93t-7.24,10.46q-1.06,1.62-4.27,8.36a10.18,10.18,0,0,1-3-.48c-1-.32-1.57-.74-1.57-1.26q0-.18,2.82-8.55t2.82-12.15c0-2.22-.75-3.33-2.24-3.33q-3.82,0-10.37,8.54a66.06,66.06,0,0,0-9.83,17.66,9.72,9.72,0,0,1-3.14-.61C412.51,542.09,411.91,541.68,411.91,541.28Z"/><path class="cls-8" d="M471.53,534.24q0-8.22,7.51-17t15.2-8.76q5.53,0,5.53,5.45,0,6.52-6.94,11.53a30.52,30.52,0,0,1-15.13,5.81,14,14,0,0,0-.36,3.22q0,7.51,7,7.51,5.44,0,11-4.56a35.73,35.73,0,0,0,9-11.26l1.07.8a32.18,32.18,0,0,1-9.92,12.72,21.41,21.41,0,0,1-13,4.8q-5.31,0-8.14-2.88A10.09,10.09,0,0,1,471.53,534.24Zm6.61-4.64a43.16,43.16,0,0,0,12-6.71q5.75-4.47,5.74-9.56c0-1.37-.62-2.06-1.87-2.06q-4.17,0-9.07,5.86A33.72,33.72,0,0,0,478.14,529.6Z"/><path class="cls-8" d="M344.22,257.11a15.37,15.37,0,0,0,2.67-6,20.9,20.9,0,0,0,.4-6.27,23.83,23.83,0,0,0-1.18-5.68,37.92,37.92,0,0,0-2.1-4.75,44.65,44.65,0,0,1-3.16-7.12,16.63,16.63,0,0,1-.5-2.06l-.11-.73s.08.24.24.69a17.91,17.91,0,0,0,.82,1.92,58.1,58.1,0,0,0,4.07,6.51,33.74,33.74,0,0,1,2.74,4.74,24.34,24.34,0,0,1,1.81,6.16,21.5,21.5,0,0,1-.09,7.19,17.06,17.06,0,0,1-3.1,7.24,14.37,14.37,0,0,1-1.36,1.55l-.73.71-.76.63a33.27,33.27,0,0,1-3.1,2.1,26.43,26.43,0,0,0-5.19,3.69,7.07,7.07,0,0,0-2.11,4.69,17.41,17.41,0,0,0,.57,5,53.27,53.27,0,0,0,2.26,7.3c.66,1.7,1.08,2.62,1.08,2.62s-.59-.82-1.52-2.4a44.13,44.13,0,0,1-3.33-7.07,17.65,17.65,0,0,1-1.2-5.48,9.05,9.05,0,0,1,2.28-6.43C336.81,262.19,341.68,260.68,344.22,257.11Z"/><path class="cls-8" d="M353,275.67a4.55,4.55,0,0,0,2.91-2.74,12.31,12.31,0,0,0,.75-4c.05-1.24,0-2.28,0-3s0-1.13,0-1.13.2.35.52,1a18.86,18.86,0,0,1,1.09,2.95,14.11,14.11,0,0,1,.38,2.2,9.1,9.1,0,0,1-.14,2.71,6.68,6.68,0,0,1-1.42,2.94,6.75,6.75,0,0,1-1.35,1.2,8.41,8.41,0,0,1-1.56.78c-1,.38-1.86.6-2.45.91a5.44,5.44,0,0,0-1.63,1.23,7.28,7.28,0,0,0-1.67,3.43,6.81,6.81,0,0,0,.05,2.82,4.78,4.78,0,0,0,.23.78c.06.18.1.28.1.28l-.21-.21a3.69,3.69,0,0,1-.57-.65,6.43,6.43,0,0,1-1.17-3.05,7.84,7.84,0,0,1,1.1-5,7.12,7.12,0,0,1,2.29-2.28A15,15,0,0,1,353,275.67Z"/><path class="cls-8" d="M315.45,270.93a33.32,33.32,0,0,1,3.55-2.34,11.69,11.69,0,0,0,2.5-2.23,13,13,0,0,0,1.68-2.64,14.71,14.71,0,0,0,.91-2.66,13,13,0,0,0,.25-4.19,8.13,8.13,0,0,0-.18-1.17c-.05-.27-.08-.41-.08-.41l.21.36a7.16,7.16,0,0,1,.53,1.1,11.73,11.73,0,0,1,.83,4.49,12.61,12.61,0,0,1-2,6.67,12.12,12.12,0,0,1-2.91,3.14c-1.17.87-2.36,1.52-3.25,2.28a5.48,5.48,0,0,0-1.76,2.61,7.68,7.68,0,0,0-.29,3.16,10.8,10.8,0,0,0,2.26,5.34,23.16,23.16,0,0,0,2.9,3.15l1.2,1.08s-.54-.21-1.48-.68a17.54,17.54,0,0,1-3.77-2.48,12.57,12.57,0,0,1-2.16-2.41,10.22,10.22,0,0,1-1.56-3.54,9.47,9.47,0,0,1,0-4.43,8,8,0,0,1,.95-2.28A7.91,7.91,0,0,1,315.45,270.93Z"/><rect class="cls-9" x="285.89" y="842.6" width="49.17" height="18.54"/><rect class="cls-9" x="303.16" y="861.14" width="14.63" height="25.04"/><rect class="cls-10" x="14.49" y="1391.96" width="803.69" height="9.01"/><rect class="cls-11" x="71" y="1535.26" width="122.58" height="10.16"/><rect class="cls-11" x="639.09" y="1535.26" width="122.58" height="10.16"/><path class="cls-12" d="M725.69,306.39H627.77a10.9,10.9,0,0,1-10.89-10.9h0a10.9,10.9,0,0,1,10.89-10.89h97.92a10.9,10.9,0,0,1,10.9,10.89h0A10.9,10.9,0,0,1,725.69,306.39Z"/><path class="cls-12" d="M725.69,273.43H627.77a10.9,10.9,0,0,1-10.89-10.89h0a10.9,10.9,0,0,1,10.89-10.9h97.92a10.9,10.9,0,0,1,10.9,10.9h0A10.9,10.9,0,0,1,725.69,273.43Z"/><path class="cls-12" d="M725.69,339.34H627.77a10.89,10.89,0,0,1-10.89-10.89h0a10.9,10.9,0,0,1,10.89-10.89h97.92a10.9,10.9,0,0,1,10.9,10.89h0A10.89,10.89,0,0,1,725.69,339.34Z"/><path class="cls-12" d="M725.69,372.3H627.77a10.9,10.9,0,0,1-10.89-10.89h0a10.89,10.89,0,0,1,10.89-10.89h97.92a10.89,10.89,0,0,1,10.9,10.89h0A10.9,10.9,0,0,1,725.69,372.3Z"/><path class="cls-12" d="M725.69,405.26H627.77a10.9,10.9,0,0,1-10.89-10.89h0a10.9,10.9,0,0,1,10.89-10.9h97.92a10.9,10.9,0,0,1,10.9,10.9h0A10.9,10.9,0,0,1,725.69,405.26Z"/><path class="cls-12" d="M725.69,438.22H627.77a10.9,10.9,0,0,1-10.89-10.9h0a10.9,10.9,0,0,1,10.89-10.89h97.92a10.9,10.9,0,0,1,10.9,10.89h0A10.9,10.9,0,0,1,725.69,438.22Z"/><path class="cls-12" d="M725.69,471.17H627.77a10.89,10.89,0,0,1-10.89-10.89h0a10.9,10.9,0,0,1,10.89-10.89h97.92a10.9,10.9,0,0,1,10.9,10.89h0A10.89,10.89,0,0,1,725.69,471.17Z"/><path class="cls-12" d="M725.69,537.09H627.77a10.9,10.9,0,0,1-10.89-10.89h0a10.9,10.9,0,0,1,10.89-10.9h97.92a10.9,10.9,0,0,1,10.9,10.9h0A10.9,10.9,0,0,1,725.69,537.09Z"/><path class="cls-12" d="M725.69,504.13H627.77a10.9,10.9,0,0,1-10.89-10.89h0a10.89,10.89,0,0,1,10.89-10.89h97.92a10.89,10.89,0,0,1,10.9,10.89h0A10.9,10.9,0,0,1,725.69,504.13Z"/><path class="cls-12" d="M773.73,306.39H759a10.9,10.9,0,0,1-10.89-10.9h0A10.9,10.9,0,0,1,759,284.6h14.71a10.9,10.9,0,0,1,10.9,10.89h0A10.9,10.9,0,0,1,773.73,306.39Z"/><path class="cls-12" d="M773.73,273.43H759a10.9,10.9,0,0,1-10.89-10.89h0A10.9,10.9,0,0,1,759,251.64h14.71a10.9,10.9,0,0,1,10.9,10.9h0A10.9,10.9,0,0,1,773.73,273.43Z"/><path class="cls-12" d="M773.73,339.34H759a10.89,10.89,0,0,1-10.89-10.89h0A10.9,10.9,0,0,1,759,317.56h14.71a10.9,10.9,0,0,1,10.9,10.89h0A10.89,10.89,0,0,1,773.73,339.34Z"/><path class="cls-12" d="M773.73,372.3H759a10.9,10.9,0,0,1-10.89-10.89h0A10.89,10.89,0,0,1,759,350.52h14.71a10.89,10.89,0,0,1,10.9,10.89h0A10.9,10.9,0,0,1,773.73,372.3Z"/><path class="cls-12" d="M773.73,405.26H759a10.9,10.9,0,0,1-10.89-10.89h0A10.9,10.9,0,0,1,759,383.47h14.71a10.9,10.9,0,0,1,10.9,10.9h0A10.9,10.9,0,0,1,773.73,405.26Z"/><path class="cls-12" d="M773.73,438.22H759a10.9,10.9,0,0,1-10.89-10.9h0A10.9,10.9,0,0,1,759,416.43h14.71a10.9,10.9,0,0,1,10.9,10.89h0A10.9,10.9,0,0,1,773.73,438.22Z"/><path class="cls-12" d="M773.73,471.17H759a10.89,10.89,0,0,1-10.89-10.89h0A10.9,10.9,0,0,1,759,449.39h14.71a10.9,10.9,0,0,1,10.9,10.89h0A10.89,10.89,0,0,1,773.73,471.17Z"/><path class="cls-12" d="M773.73,537.09H759a10.9,10.9,0,0,1-10.89-10.89h0A10.9,10.9,0,0,1,759,515.3h14.71a10.9,10.9,0,0,1,10.9,10.9h0A10.9,10.9,0,0,1,773.73,537.09Z"/><path class="cls-12" d="M773.73,504.13H759a10.9,10.9,0,0,1-10.89-10.89h0A10.89,10.89,0,0,1,759,482.35h14.71a10.89,10.89,0,0,1,10.9,10.89h0A10.9,10.9,0,0,1,773.73,504.13Z"/><path class="cls-8" d="M725.69,251.64H627.77a10.89,10.89,0,0,0-8.32,17.91,10.84,10.84,0,0,1-1.34-5.23h0A10.9,10.9,0,0,1,629,253.43h97.91a10.86,10.86,0,0,1,8.33,3.88A10.89,10.89,0,0,0,725.69,251.64Z"/><path class="cls-8" d="M749.36,264.32h0a10.89,10.89,0,0,1,10.89-10.89H775a10.86,10.86,0,0,1,8.33,3.88,10.88,10.88,0,0,0-9.56-5.67H759a10.89,10.89,0,0,0-8.33,17.91A10.83,10.83,0,0,1,749.36,264.32Z"/><path class="cls-8" d="M725.69,284.6H627.77a10.89,10.89,0,0,0-8.32,17.91,10.84,10.84,0,0,1-1.34-5.23h0A10.9,10.9,0,0,1,629,286.39h97.91a10.86,10.86,0,0,1,8.33,3.88A10.89,10.89,0,0,0,725.69,284.6Z"/><path class="cls-8" d="M749.36,297.28h0a10.89,10.89,0,0,1,10.89-10.89H775a10.86,10.86,0,0,1,8.33,3.88,10.88,10.88,0,0,0-9.56-5.67H759a10.89,10.89,0,0,0-8.33,17.91A10.83,10.83,0,0,1,749.36,297.28Z"/><path class="cls-8" d="M725.69,317.56H627.77a10.88,10.88,0,0,0-8.32,17.9,10.83,10.83,0,0,1-1.34-5.22h0A10.89,10.89,0,0,1,629,319.35h97.91a10.86,10.86,0,0,1,8.33,3.88A10.89,10.89,0,0,0,725.69,317.56Z"/><path class="cls-8" d="M749.36,330.24h0a10.88,10.88,0,0,1,10.89-10.89H775a10.86,10.86,0,0,1,8.33,3.88,10.88,10.88,0,0,0-9.56-5.67H759a10.89,10.89,0,0,0-8.33,17.9A10.82,10.82,0,0,1,749.36,330.24Z"/><path class="cls-8" d="M725.69,350.52H627.77a10.88,10.88,0,0,0-8.32,17.9,10.83,10.83,0,0,1-1.34-5.22h0A10.9,10.9,0,0,1,629,352.3h97.91a10.86,10.86,0,0,1,8.33,3.88A10.9,10.9,0,0,0,725.69,350.52Z"/><path class="cls-8" d="M749.36,363.2h0a10.89,10.89,0,0,1,10.89-10.9H775a10.86,10.86,0,0,1,8.33,3.88,10.89,10.89,0,0,0-9.56-5.66H759a10.89,10.89,0,0,0-8.33,17.9A10.82,10.82,0,0,1,749.36,363.2Z"/><path class="cls-8" d="M725.69,383.47H627.77a10.89,10.89,0,0,0-8.32,17.91,10.84,10.84,0,0,1-1.34-5.23h0A10.9,10.9,0,0,1,629,385.26h97.91a10.86,10.86,0,0,1,8.33,3.88A10.89,10.89,0,0,0,725.69,383.47Z"/><path class="cls-8" d="M749.36,396.15h0a10.89,10.89,0,0,1,10.89-10.89H775a10.86,10.86,0,0,1,8.33,3.88,10.88,10.88,0,0,0-9.56-5.67H759a10.89,10.89,0,0,0-8.33,17.91A10.83,10.83,0,0,1,749.36,396.15Z"/><path class="cls-8" d="M725.69,416.43H627.77a10.89,10.89,0,0,0-8.32,17.91,10.84,10.84,0,0,1-1.34-5.23h0A10.9,10.9,0,0,1,629,418.22h97.91a10.86,10.86,0,0,1,8.33,3.88A10.89,10.89,0,0,0,725.69,416.43Z"/><path class="cls-8" d="M749.36,429.11h0a10.89,10.89,0,0,1,10.89-10.89H775a10.86,10.86,0,0,1,8.33,3.88,10.88,10.88,0,0,0-9.56-5.67H759a10.89,10.89,0,0,0-8.33,17.91A10.83,10.83,0,0,1,749.36,429.11Z"/><path class="cls-8" d="M725.69,449.39H627.77a10.88,10.88,0,0,0-8.32,17.9,10.83,10.83,0,0,1-1.34-5.22h0A10.89,10.89,0,0,1,629,451.18h97.91a10.86,10.86,0,0,1,8.33,3.88A10.89,10.89,0,0,0,725.69,449.39Z"/><path class="cls-8" d="M749.36,462.07h0a10.88,10.88,0,0,1,10.89-10.89H775a10.86,10.86,0,0,1,8.33,3.88,10.88,10.88,0,0,0-9.56-5.67H759a10.89,10.89,0,0,0-8.33,17.9A10.82,10.82,0,0,1,749.36,462.07Z"/><path class="cls-8" d="M725.69,482.35H627.77a10.88,10.88,0,0,0-8.32,17.9,10.83,10.83,0,0,1-1.34-5.22h0a10.9,10.9,0,0,1,10.9-10.9h97.91a10.86,10.86,0,0,1,8.33,3.88A10.9,10.9,0,0,0,725.69,482.35Z"/><path class="cls-8" d="M749.36,495h0a10.89,10.89,0,0,1,10.89-10.9H775a10.86,10.86,0,0,1,8.33,3.88,10.89,10.89,0,0,0-9.56-5.66H759a10.89,10.89,0,0,0-8.33,17.9A10.82,10.82,0,0,1,749.36,495Z"/><path class="cls-8" d="M725.69,515.3H627.77a10.89,10.89,0,0,0-8.32,17.91,10.84,10.84,0,0,1-1.34-5.23h0A10.9,10.9,0,0,1,629,517.09h97.91a10.86,10.86,0,0,1,8.33,3.88A10.89,10.89,0,0,0,725.69,515.3Z"/><path class="cls-8" d="M749.36,528h0a10.89,10.89,0,0,1,10.89-10.89H775a10.86,10.86,0,0,1,8.33,3.88,10.88,10.88,0,0,0-9.56-5.67H759a10.89,10.89,0,0,0-8.33,17.91A10.83,10.83,0,0,1,749.36,528Z"/><path class="cls-13" d="M759.29,1004.6a40.73,40.73,0,0,1-40.75,40.75H672.75A40.75,40.75,0,0,1,632,1004.6Z"/><path class="cls-12" d="M672.75,1050.93a46.33,46.33,0,0,1-46.34-46.33V999H764.88v5.58a46.31,46.31,0,0,1-46.34,46.33Z"/><path class="cls-7" d="M759.29,1004.6a40.73,40.73,0,0,1-40.75,40.75H672.75A40.75,40.75,0,0,1,632,1004.6Z"/><path class="cls-6" d="M747.36,1014.42a40.66,40.66,0,0,1-28.82,11.93H672.75a40.7,40.7,0,0,1-36-21.75H632a40.75,40.75,0,0,0,40.75,40.75h45.79a40.73,40.73,0,0,0,40.75-40.75h-4.7A40.93,40.93,0,0,1,747.36,1014.42Z"/><rect class="cls-12" x="647.04" y="831.8" width="97.2" height="20.86"/><rect class="cls-7" x="654.7" y="836.28" width="81.88" height="11.9"/><polygon class="cls-2" points="695.64 858.28 702.3 864.04 708.96 869.81 695.64 869.81 682.33 869.81 688.99 864.04 695.64 858.28"/><path class="cls-10" d="M797.37,1433.62H698.44a2.8,2.8,0,0,1-2.8-2.79h0a2.8,2.8,0,0,1,2.8-2.79h98.93a2.79,2.79,0,0,1,2.79,2.79h0A2.79,2.79,0,0,1,797.37,1433.62Z"/><path class="cls-10" d="M797.37,1444.79H698.44a2.8,2.8,0,0,1-2.8-2.79h0a2.8,2.8,0,0,1,2.8-2.79h98.93a2.79,2.79,0,0,1,2.79,2.79h0A2.79,2.79,0,0,1,797.37,1444.79Z"/><path class="cls-10" d="M797.37,1456H698.44a2.8,2.8,0,0,1-2.8-2.8h0a2.8,2.8,0,0,1,2.8-2.79h98.93a2.79,2.79,0,0,1,2.79,2.79h0A2.79,2.79,0,0,1,797.37,1456Z"/><path class="cls-10" d="M797.37,1467.14H698.44a2.8,2.8,0,0,1-2.8-2.79h0a2.8,2.8,0,0,1,2.8-2.8h98.93a2.79,2.79,0,0,1,2.79,2.8h0A2.79,2.79,0,0,1,797.37,1467.14Z"/><path class="cls-10" d="M797.37,1478.31H698.44a2.8,2.8,0,0,1-2.8-2.79h0a2.8,2.8,0,0,1,2.8-2.79h98.93a2.79,2.79,0,0,1,2.79,2.79h0A2.79,2.79,0,0,1,797.37,1478.31Z"/><rect class="cls-14" x="285.89" y="842.6" width="49.17" height="3.35"/><path class="cls-9" d="M519.77,806.91a12.84,12.84,0,0,1-2.21,7.2c-2.87,4.36-8.42,7.82-15.86,10.4-11.16,3.89-26.59,5.8-43.63,5.8H168.27c-28.39,0-52.31-5.32-59.5-16.2a12.84,12.84,0,0,1-2.21-7.2Z"/><path class="cls-9" d="M357.63,830.31a13.12,13.12,0,0,1-.27,2.61,12.32,12.32,0,0,1-3.18,6.08,11.48,11.48,0,0,1-8.33,3.6H275.1a11.89,11.89,0,0,1-11.5-9.68,12.42,12.42,0,0,1-.27-2.61Z"/><path class="cls-14" d="M357.63,830.31a13.12,13.12,0,0,1-.27,2.61H263.6a12.42,12.42,0,0,1-.27-2.61Z"/><rect class="cls-14" x="303.16" y="861.14" width="14.63" height="3.35"/><rect class="cls-14" x="14.49" y="115.28" width="803.69" height="20.11"/><rect class="cls-3" width="832.67" height="118.54"/><rect class="cls-2" x="107.48" y="21" width="617.71" height="76.54"/><polygon class="cls-14" points="115.3 31.06 725.19 31.06 725.19 21 107.48 21 107.48 97.54 115.3 97.54 115.3 31.06"/><path class="cls-3" d="M270.39,72.06a17.9,17.9,0,0,1-12.79,5.31,18.1,18.1,0,1,1,12.79-30.89l-4.26,4.27a12.07,12.07,0,1,0,0,17Z"/><path class="cls-3" d="M294.53,41.17a18.1,18.1,0,1,1-18.1,18.1A18.13,18.13,0,0,1,294.53,41.17Zm0,6a12.07,12.07,0,1,0,12.06,12.06A12.05,12.05,0,0,0,294.53,47.21Z"/><path class="cls-3" d="M318.66,41.17h20.11l-2,6H324.69v9h10.06v6H324.69V77.37h-6Z"/><path class="cls-3" d="M344.8,41.17h20.11l-2,6H350.84v9h10.05v6H350.84V77.37h-6Z"/><path class="cls-3" d="M389,47.21H377v9h10v6H377v9.05h14.08l-2,6H371V41.17h20.11Z"/><path class="cls-3" d="M415.19,47.21H403.12v9h10.06v6H403.12v9.05H417.2l-2,6h-18.1V41.17H417.2Z"/><path class="cls-3" d="M460.44,47.21H449.38V77.37h-6V47.21H432.28v-6h28.16Z"/><path class="cls-3" d="M480.55,41.17a18.1,18.1,0,1,1-18.1,18.1A18.13,18.13,0,0,1,480.55,41.17Zm0,6a12.07,12.07,0,1,0,12.06,12.06A12.05,12.05,0,0,0,480.55,47.21Z"/><path class="cls-3" d="M550.93,59.27a18.13,18.13,0,1,1-5.31-12.79l-4.26,4.27a12.06,12.06,0,1,0-8.53,20.59,12.14,12.14,0,0,0,11.71-9.05h-10.7l-1-6h18.1Z"/><path class="cls-3" d="M575.06,41.17A18.1,18.1,0,1,1,557,59.27,18.13,18.13,0,0,1,575.06,41.17Zm0,6a12.07,12.07,0,1,0,12.07,12.06A12,12,0,0,0,575.06,47.21Z"/><path class="cls-14" d="M519.77,806.91a12.84,12.84,0,0,1-2.21,7.2H108.77a12.84,12.84,0,0,1-2.21-7.2Z"/></g></g></g></svg>