<svg xmlns="http://www.w3.org/2000/svg" viewBox="0 0 460.34 554.56"><defs><style>.cls-1{fill:#bfcdde;}.cls-2{fill:#78d6fa;}.cls-3{fill:#d5ebfa;}.cls-4{fill:#90defc;}.cls-5{fill:#50bce6;}.cls-6{fill:#44b2db;}.cls-7{fill:#64c7ed;}.cls-8{fill:#f2f8ff;}.cls-9{fill:#d9d9d9;}.cls-10{fill:#fafafa;}.cls-11{fill:#ededed;}.cls-12{fill:#86bf13;}.cls-13{fill:#6a960f;}.cls-14{fill:#fff;}</style></defs><title>milk</title><g id="Layer_2" data-name="Layer 2"><path class="cls-1" d="M460.34,543.09c0,6.33-103,11.47-230.17,11.47S0,549.42,0,543.09s103.05-11.48,230.17-11.48S460.34,536.75,460.34,543.09Z"/><path class="cls-2" d="M413.38,139.46V535.73a8.78,8.78,0,0,1-8.77,8.77H183.15a8.79,8.79,0,0,1-8.78-8.77V139.46Z"/><path class="cls-3" d="M413.38,225.38v17.3c-5.44,3.43-10.56,7-15.35,10.66-84,64-98.65,173.29-102,219.36-3.3-18.63-15.45-98.68,35-173.54C357.74,259.61,391.32,237.18,413.38,225.38Z"/><polygon class="cls-4" points="120.44 39.01 338.29 39.01 413.37 139.47 195.53 139.47 120.44 39.01"/><polygon class="cls-5" points="195.53 139.47 120.44 39.01 45.36 139.47 195.53 139.47"/><polygon class="cls-6" points="45.36 139.47 139.12 64 120.44 39.01 45.36 139.47"/><path class="cls-2" d="M120.44,39H338.29V9.24A9.24,9.24,0,0,0,329.05,0H129.68a9.24,9.24,0,0,0-9.24,9.24Z"/><path class="cls-7" d="M195.52,139.47V535.71a8.78,8.78,0,0,1-8.76,8.79H54.13a8.79,8.79,0,0,1-8.77-8.79V139.47Z"/><path class="cls-8" d="M413.38,216.92v14.79a209.69,209.69,0,0,0-33.75,25.74C294.25,337.57,302,467.09,305.77,505.76l-67.13,5.74a388.92,388.92,0,0,1,47-157.32C324.13,284.48,376.34,241.29,413.38,216.92Z"/><path class="cls-8" d="M413.37,406.79V535.71a8.78,8.78,0,0,1-8.77,8.79H183.15a8.78,8.78,0,0,1-8.77-8.79V524.62c3-9.86,8.9-21.89,19.4-36.62a20.43,20.43,0,0,1,9,4c6.89,5.52,5.76,12.89,9.6,14.71,6.15,2.92,15.55-13,28.14-21.1,24.77-16,45.3,8.65,74.19-.63,34.26-11,30.12-53.72,69.06-71.64A74.51,74.51,0,0,1,413.37,406.79Z"/><path class="cls-3" d="M195.52,488.4v47.31a8.78,8.78,0,0,1-8.76,8.79H54.13a8.79,8.79,0,0,1-8.77-8.79V454.14a65.1,65.1,0,0,0,23,13.23c23.09,7.39,33.06-4.83,50.85,3.84,12.35,6,22.58,19.25,29.73,15.83a27.42,27.42,0,0,1,6.72-2.88c4.22-1.08,5.68-.1,9.11-1,4.73-1.18,5.88-4,8.63-5.27C176.93,476.33,183.26,477.28,195.52,488.4Z"/><path class="cls-8" d="M355.66,422.77a4.43,4.43,0,0,0-3.6-3.12c-4.21-.59-9.49,6.07-11.27,12.47-1.28,4.59-.05,6.52-2.16,9.36-2.6,3.5-5.61,2.1-7.91,4.79-4.47,5.23,3.76,14.15-.48,21.58-2.23,3.92-7.35,6.43-10.55,5.28s-2.58-5.74-6-8.63c-2.46-2.08-7-3.31-16.22-.32a51.33,51.33,0,0,0-4.05,44.61l50.25-35.66a43.66,43.66,0,0,1-3.36-17.75c.12-4.79.36-14.8,7-22.54C351.33,428.08,356.32,425.91,355.66,422.77Z"/><path class="cls-8" d="M347.67,414.94c2.12,1.43,7.85-1.58,9.27-6.08.72-2.27.58-5.71-1.28-6.71-2.08-1.13-5.42,1.3-7,3.51C346.37,408.75,345.81,413.68,347.67,414.94Z"/><path class="cls-8" d="M333.92,426.13c1.72-.2,2.74-3.56,2.87-5.76,0-.56.26-4.3-1.59-5.11s-4.74,1.29-5.44,3.83C328.84,422.43,331.93,426.36,333.92,426.13Z"/><path class="cls-8" d="M271.73,486.56c-1.45-12.65-5.37-16.78-8.64-18.23-7.8-3.46-17.94,5.64-24.46.48-2.38-1.88-2.84-4.53-6.71-6.23-2.67-1.18-4.42-.78-7.2-1-10.89-.7-15.66-8.74-20.14-6.24-1.3.73-2.56,2.34-2.4,3.84.46,4.34,12.36,4.23,20.14,8.63,6.78,3.84,13.61,12.88,15.35,35Z"/><path class="cls-8" d="M242.79,489.76c-6.07-4.12-9.68-4-11.83-3.2-3.29,1.24-3.57,4.26-7.68,5.44-3.64,1-5.64-.7-7.67.95s-2.47,5-1.28,6.08,4.24-1,8.31-1.92c3.3-.73,8.32-.78,15.35,2.88Z"/><path class="cls-8" d="M214,480.8c0,1.57-2.82,3.36-5.43,3.2-2.32-.14-4.92-1.83-4.8-3.52.09-1.32,1.84-2.23,2.88-2.55C209.82,476.93,214,479,214,480.8Z"/><path class="cls-8" d="M308.66,456.18c-1.55-.64-2.08-4.5-.32-6.71,1.06-1.35,3.22-2.39,4.47-1.6s1.06,3.53.32,5.12C312.23,454.94,310,456.74,308.66,456.18Z"/><path class="cls-3" d="M336,479.13c-3.85,7.81-8.51,11.55-12,13.51-13.35,7.58-26.87-1-55.23-1.54a146.15,146.15,0,0,0-21.63,1.16,64,64,0,0,1,25.49-6.57c21.28-.81,32.5,10.27,47.89,5C328.18,488.11,333.19,482.73,336,479.13Z"/><path class="cls-3" d="M290.42,489.94c.23-6.83-1.62-9.78-3.48-11.2-3-2.27-5.91-.51-8.88-3.09-3.6-3.12-1.68-7.75-4.63-9.27s-5.28,2.73-10.43,1.93c-4-.62-4.75-3.54-8.5-3.47-3.18.05-6.38,2.22-6.18,3.47.41,2.49,13.78-1.1,19.7,5.41,3.35,3.68,3.28,9.47,2.32,14.67Z"/><path class="cls-3" d="M143.66,475.78c-1.32,1.36-5.67-.63-8.23-2.58-3.35-2.53-6.37-7.07-5.15-8.75S136,463.84,139,466C143,468.8,145.11,474.29,143.66,475.78Z"/><path class="cls-8" d="M268.74,209l-2.56,40.9-12.7.56.11-21.57-5.74,17.39H243l-4.41-15.55,0,18.06-12.87.39.55-38.51,14.32-.55,5.69,18.44L253.76,209Z"/><path class="cls-8" d="M285.82,210.41l-3.06,37.94L271,249V211.19Z"/><path class="cls-8" d="M312.23,233.75l-1.16,12.37L287.61,248q.17-9.72.37-19.33t.52-19.34H303q-.64,6.11-1.23,12.19t-.84,12.27c.88,0,1.74.06,2.59.06h2.6q1.56,0,3.06,0T312.23,233.75Z"/><path class="cls-8" d="M348.87,209.74l-13.43,18.55L346.75,248l-12.92,2.29-8.47-12-.45,12.59-11.59.45.89-42.69,13,.73-1,12.59,8.64-13.32Z"/><path class="cls-7" d="M305,79.83C297,62,277.93,47.58,262.32,47.58a17.93,17.93,0,0,0-11,3.35l0,0A37.34,37.34,0,0,0,245.86,55,36.9,36.9,0,0,0,239.94,62L240,62c-3.34,5.91-3.26,14.62,1.08,24.36,8,17.81,27,32.24,42.67,32.24a18.94,18.94,0,0,0,9.1-2.14c.24-.11.48-.24.73-.37l0,0a26.32,26.32,0,0,0,6.23-4.46,26.9,26.9,0,0,0,3.08-3.58h0C309.21,102.56,310.4,92,305,79.83Z"/><path class="cls-9" d="M302.62,115.86a31.58,31.58,0,0,0,10.13-6.57,30.33,30.33,0,0,0,3.61-4.2L255.73,38a43,43,0,0,0-13.34,13Z"/><ellipse class="cls-9" cx="276.95" cy="79.66" rx="27.75" ry="45.27" transform="translate(22.34 214.65) rotate(-43.98)"/><ellipse class="cls-10" cx="285.54" cy="71.95" rx="27.75" ry="45.27" transform="translate(30.1 218.45) rotate(-43.98)"/><path class="cls-11" d="M307.4,72c6.14,13.77,1.34,24.93-10.74,24.93s-26.84-11.16-33-24.93S262.34,47,274.42,47,301.26,58.18,307.4,72Z"/><path class="cls-10" d="M267.63,109.41a1.58,1.58,0,0,1-1.05-.41,1.56,1.56,0,0,1-.08-2.19l8-8.62a1.55,1.55,0,1,1,2.27,2.1l-8,8.62A1.56,1.56,0,0,1,267.63,109.41Z"/><path class="cls-10" d="M257.72,101a1.55,1.55,0,0,1-1.13-2.6l8-8.5a1.55,1.55,0,0,1,2.25,2.12l-8,8.49A1.54,1.54,0,0,1,257.72,101Z"/><rect class="cls-8" x="224.25" y="168.44" width="97.06" height="28.58" rx="8.11"/><path class="cls-12" d="M253.28,175.76c-.05.69-.09,1.38-.12,2.05s-.09,1.36-.15,2.05l-4.68.25v1.39h4.06l-.22,3.42-3.86.11,0,6.09-5.58.11.35-15.47Z"/><path class="cls-12" d="M266.8,180.82a7.51,7.51,0,0,1-.15,1.56,4.89,4.89,0,0,1-.47,1.28,4.7,4.7,0,0,1-.83,1.09,7.81,7.81,0,0,1-1.22.94l2.63,4.68-5,1-1.7-4.71-1.37.05-.2,4.59h-4.75c0-1.68.08-3.35.11-5s.07-3.33.12-5c0-.85,0-1.69,0-2.52s0-1.67.09-2.52a13.21,13.21,0,0,1,1.52-.47,13,13,0,0,1,1.51-.29,15.24,15.24,0,0,1,1.53-.15c.52,0,1.05,0,1.6,0a8.54,8.54,0,0,1,2.43.34,6.35,6.35,0,0,1,2.08,1,5.22,5.22,0,0,1,1.45,1.74A5,5,0,0,1,266.8,180.82Zm-4.95.35a2.86,2.86,0,0,0-.12-.85,1.92,1.92,0,0,0-.38-.67,1.56,1.56,0,0,0-.62-.44,2.06,2.06,0,0,0-.86-.16l-.43,0c-.14,0-.28.05-.41.09l-.18,4.1h.27a4.07,4.07,0,0,0,1-.12,2.94,2.94,0,0,0,.89-.37,2.2,2.2,0,0,0,.64-.65A1.81,1.81,0,0,0,261.85,181.17Z"/><path class="cls-12" d="M279.88,182.53a13.8,13.8,0,0,1-.13,1.93c-1.26.08-2.51.21-3.76.39l-3.73.53a2.64,2.64,0,0,0,.9,1.27,2.31,2.31,0,0,0,1.46.48,3.25,3.25,0,0,0,1-.17,8.31,8.31,0,0,0,1-.41,8.72,8.72,0,0,0,1-.54c.31-.19.59-.36.81-.51l-.53,5a4,4,0,0,1-.93.57,6.11,6.11,0,0,1-1,.37,8.42,8.42,0,0,1-1.09.22,10.09,10.09,0,0,1-1.09.06,6.25,6.25,0,0,1-2-.3,5.75,5.75,0,0,1-1.64-.83,6.21,6.21,0,0,1-1.29-1.27,7.51,7.51,0,0,1-.92-1.58,9.85,9.85,0,0,1-.55-1.82,10.65,10.65,0,0,1-.19-1.95,11.85,11.85,0,0,1,.19-2.05,11,11,0,0,1,.57-2,8.55,8.55,0,0,1,1-1.76,7.28,7.28,0,0,1,1.35-1.42,6.29,6.29,0,0,1,1.75-.95,6.44,6.44,0,0,1,2.16-.34,5.61,5.61,0,0,1,1.79.27,4.86,4.86,0,0,1,1.45.75,5,5,0,0,1,1.1,1.15,6.5,6.5,0,0,1,.78,1.45,8.81,8.81,0,0,1,.45,1.66A10.6,10.6,0,0,1,279.88,182.53Zm-4.42-.57a3.44,3.44,0,0,0-.06-.63,2.06,2.06,0,0,0-.22-.59,1.28,1.28,0,0,0-.39-.44,1,1,0,0,0-.61-.17,1.33,1.33,0,0,0-.78.24,2.29,2.29,0,0,0-.57.59,3.2,3.2,0,0,0-.4.78,5,5,0,0,0-.23.77l3.26-.3Z"/><path class="cls-12" d="M291.91,185.8a6,6,0,0,1-.52,2.61,4.87,4.87,0,0,1-1.44,1.81,5.9,5.9,0,0,1-2.13,1.05,9.59,9.59,0,0,1-2.62.34,5.89,5.89,0,0,1-1.19-.14c-.43-.1-.86-.22-1.3-.36s-.87-.3-1.28-.47-.77-.32-1.09-.47l.49-4.32a7.7,7.7,0,0,0,2.08.85,8.82,8.82,0,0,0,2.25.3l.5,0a2.61,2.61,0,0,0,.57-.1,1.14,1.14,0,0,0,.46-.25.62.62,0,0,0,.19-.47.57.57,0,0,0-.13-.36,1.16,1.16,0,0,0-.35-.25,2.89,2.89,0,0,0-.47-.14,5,5,0,0,0-.52-.07l-.48,0h-.35a4.8,4.8,0,0,1-1.73-.3,3.72,3.72,0,0,1-2.2-2.17,4.74,4.74,0,0,1-.31-1.72,5.07,5.07,0,0,1,.53-2.34,5.46,5.46,0,0,1,1.4-1.76,6.45,6.45,0,0,1,2-1.11,7.51,7.51,0,0,1,2.35-.38c.37,0,.74,0,1.12,0a8.87,8.87,0,0,1,1.14.14A10,10,0,0,1,290,176a6.07,6.07,0,0,1,1,.39l-.42,4.48a14.57,14.57,0,0,0-1.58-.43,8.06,8.06,0,0,0-1.6-.17h-.37l-.47,0a4.5,4.5,0,0,0-.51.08,2.37,2.37,0,0,0-.45.15,1,1,0,0,0-.32.25.51.51,0,0,0-.11.37.49.49,0,0,0,.18.37,1.11,1.11,0,0,0,.44.19,2.77,2.77,0,0,0,.6.06h.65l.59,0h.45a4.42,4.42,0,0,1,1.59.37,3.89,3.89,0,0,1,1.2.85,3.59,3.59,0,0,1,.75,1.27A4.65,4.65,0,0,1,291.91,185.8Z"/><path class="cls-12" d="M305.72,191l-5.52.27,0-4.66h-2.54l-.16,4.84h-4.94l.42-15.53,5.25.25-.33,7.92h2.45l0-8.3,5,.13Z"/><path class="cls-13" d="M236.35,200.1a28.49,28.49,0,0,1-6,1.93,31.72,31.72,0,0,1-19.69-2.7c.38-.73,3.59-6.63,10.23-7.73C226.94,190.61,233.29,194,236.35,200.1Z"/><path class="cls-12" d="M237.38,200a15.81,15.81,0,0,0-1.29-8c-2.92-6.37-10.4-10.29-19.05-10.29a16.76,16.76,0,0,0,2.06,9.78C222.49,197.38,229.62,200.63,237.38,200Z"/><path class="cls-3" d="M152.82,248h-5a1.14,1.14,0,0,1,0-2.28h5a1.14,1.14,0,0,1,0,2.28Zm-9.56,0H129.14a1.14,1.14,0,0,1,0-2.28h14.12a1.14,1.14,0,0,1,0,2.28Zm-20.49,0h-5a1.14,1.14,0,1,1,0-2.28h5a1.14,1.14,0,0,1,0,2.28Zm-9.57,0H99.09a1.14,1.14,0,0,1,0-2.28H113.2a1.14,1.14,0,1,1,0,2.28Zm-20.49,0h-5a1.14,1.14,0,1,1,0-2.28h5a1.14,1.14,0,1,1,0,2.28Zm-9.56,0H70.4a1.14,1.14,0,0,1,0-2.28H83.15a1.14,1.14,0,0,1,0,2.28Z"/><path class="cls-3" d="M158.74,258.45h-13.2a1.14,1.14,0,1,1,0-2.27h13.2a1.14,1.14,0,1,1,0,2.27Zm-19.58,0H120a1.14,1.14,0,1,1,0-2.27h19.13a1.14,1.14,0,1,1,0,2.27Zm-25.5,0H94.53a1.14,1.14,0,1,1,0-2.27h19.13a1.14,1.14,0,1,1,0,2.27Zm-25.5,0H70.4a1.14,1.14,0,1,1,0-2.27H88.16a1.14,1.14,0,0,1,0,2.27Z"/><path class="cls-3" d="M155.55,269H141.44a.9.9,0,0,0-.46,0h-5a1.14,1.14,0,1,1,0-2.28h5l.23,0,.23,0h14.11a1.14,1.14,0,0,1,0,2.28Zm-24.13,0H117.3a.91.91,0,0,1-.23,0,.83.83,0,0,1-.22,0h-5a1.14,1.14,0,0,1,0-2.28h5l.22,0,.23,0h14.12a1.14,1.14,0,1,1,0,2.28Zm-24.14,0H93.16a.83.83,0,0,1-.22,0,.91.91,0,0,1-.23,0h-5a1.14,1.14,0,0,1,0-2.28h5l.23,0,.22,0h14.12a1.14,1.14,0,1,1,0,2.28Zm-24.13,0H70.4a1.14,1.14,0,0,1,0-2.28H83.15a1.14,1.14,0,0,1,0,2.28Z"/><path class="cls-3" d="M152.82,279.46h-5a1.14,1.14,0,0,1,0-2.28h5a1.14,1.14,0,1,1,0,2.28Zm-9.56,0H129.14a1.14,1.14,0,0,1,0-2.28h14.12a1.14,1.14,0,1,1,0,2.28Zm-20.49,0h-5a1.14,1.14,0,0,1,0-2.28h5a1.14,1.14,0,0,1,0,2.28Zm-9.57,0H99.09a1.14,1.14,0,0,1,0-2.28H113.2a1.14,1.14,0,1,1,0,2.28Zm-20.49,0h-5a1.14,1.14,0,0,1,0-2.28h5a1.14,1.14,0,1,1,0,2.28Zm-9.56,0H70.4a1.14,1.14,0,0,1,0-2.28H83.15a1.14,1.14,0,0,1,0,2.28Z"/><path class="cls-3" d="M158.74,290h-2.28a1.14,1.14,0,0,1,0-2.28h2.28a1.14,1.14,0,0,1,0,2.28Zm-22.31,0h-5a1.14,1.14,0,0,1,0-2.28h5a1.14,1.14,0,0,1,0,2.28Zm-9.57,0H112.75a1.14,1.14,0,0,1,0-2.28h14.11a1.14,1.14,0,1,1,0,2.28Zm-34.15,0h-5a1.14,1.14,0,0,1,0-2.28h5a1.14,1.14,0,1,1,0,2.28Zm-9.56,0H70.4a1.14,1.14,0,0,1,0-2.28H83.15a1.14,1.14,0,0,1,0,2.28Z"/><path class="cls-3" d="M158.74,300.46H151a1.14,1.14,0,1,1,0-2.27h7.74a1.14,1.14,0,1,1,0,2.27Zm-14.12,0H130.51a1.14,1.14,0,1,1,0-2.27h14.11a1.14,1.14,0,1,1,0,2.27Zm-20.49,0H110a1.14,1.14,0,0,1,0-2.27h14.12a1.14,1.14,0,1,1,0,2.27Zm-20.49,0H89.52a1.14,1.14,0,1,1,0-2.27h14.12a1.14,1.14,0,1,1,0,2.27Zm-20.49,0H70.4a1.14,1.14,0,1,1,0-2.27H83.15a1.14,1.14,0,0,1,0,2.27Z"/><path class="cls-3" d="M158.75,311a1.14,1.14,0,1,1,0-2.27h0a1.14,1.14,0,0,1,0,2.27Zm-4.56,0H135.06a1.14,1.14,0,1,1,0-2.27h19.13a1.14,1.14,0,1,1,0,2.27Zm-23.68,0H111.38a1.14,1.14,0,1,1,0-2.27h19.13a1.14,1.14,0,1,1,0,2.27Zm-23.68,0H87.7a1.14,1.14,0,1,1,0-2.27h19.13a1.14,1.14,0,1,1,0,2.27Zm-23.68,0H70.4a1.14,1.14,0,1,1,0-2.27H83.15a1.14,1.14,0,0,1,0,2.27Z"/><path class="cls-3" d="M158.74,321.47h-2.28a1.14,1.14,0,0,1,0-2.28h2.28a1.14,1.14,0,1,1,0,2.28Zm-8.65,0h-5a1.14,1.14,0,1,1,0-2.28h5a1.14,1.14,0,1,1,0,2.28Zm-9.56,0H127.77a1.14,1.14,0,0,1,0-2.28h12.76a1.14,1.14,0,0,1,0,2.28Zm-19.13,0h-5a1.14,1.14,0,0,1,0-2.28h5a1.14,1.14,0,1,1,0,2.28Zm-9.56,0H99.09a1.14,1.14,0,0,1,0-2.28h12.75a1.14,1.14,0,0,1,0,2.28Zm-19.13,0h-5a1.14,1.14,0,0,1,0-2.28h5a1.14,1.14,0,1,1,0,2.28Zm-9.56,0H70.4a1.14,1.14,0,0,1,0-2.28H83.15a1.14,1.14,0,0,1,0,2.28Z"/><path class="cls-3" d="M156,332H143.26a1.14,1.14,0,0,1,0-2.28H156a1.14,1.14,0,1,1,0,2.28Zm-19.13,0h-1.36a1.14,1.14,0,1,1,0-2.28h1.36a1.14,1.14,0,1,1,0,2.28Zm-7.74,0h-5a1.14,1.14,0,0,1,0-2.28h5a1.14,1.14,0,1,1,0,2.28Zm-9.56,0H106.83a1.14,1.14,0,0,1,0-2.28h12.75a1.14,1.14,0,1,1,0,2.28Zm-19.13,0H99.09a1.14,1.14,0,0,1,0-2.28h1.36a1.14,1.14,0,1,1,0,2.28Zm-7.74,0h-5a1.14,1.14,0,0,1,0-2.28h5a1.14,1.14,0,1,1,0,2.28Zm-9.56,0H70.4a1.14,1.14,0,0,1,0-2.28H83.15a1.14,1.14,0,0,1,0,2.28Z"/><path class="cls-8" d="M309.89,268.31a1.07,1.07,0,0,1-1.07-1.07,1.05,1.05,0,0,1,1.06-1.06h0a1.07,1.07,0,0,1,0,2.13Zm-4.28,0H287.69a1.07,1.07,0,1,1,0-2.13h17.92a1.07,1.07,0,1,1,0,2.13Zm-22.19,0H265.5a1.07,1.07,0,1,1,0-2.13h17.92a1.07,1.07,0,1,1,0,2.13Zm-22.19,0H243.31a1.07,1.07,0,1,1,0-2.13h17.92a1.07,1.07,0,1,1,0,2.13Zm-22.19,0H227.09a1.07,1.07,0,1,1,0-2.13H239a1.07,1.07,0,1,1,0,2.13Z"/><path class="cls-8" d="M309.88,278.15h-2.13a1.07,1.07,0,1,1,0-2.13h2.13a1.07,1.07,0,1,1,0,2.13Zm-8.11,0h-4.69a1.07,1.07,0,1,1,0-2.13h4.69a1.07,1.07,0,1,1,0,2.13Zm-9,0H280.86a1.07,1.07,0,0,1,0-2.13h11.95a1.07,1.07,0,1,1,0,2.13Zm-17.92,0h-4.7a1.07,1.07,0,0,1,0-2.13h4.7a1.07,1.07,0,0,1,0,2.13Zm-9,0H254a1.07,1.07,0,1,1,0-2.13h12a1.07,1.07,0,0,1,0,2.13Zm-17.93,0h-4.69a1.07,1.07,0,1,1,0-2.13H248a1.07,1.07,0,1,1,0,2.13Zm-9,0H227.09a1.07,1.07,0,1,1,0-2.13H239a1.07,1.07,0,1,1,0,2.13Z"/><path class="cls-8" d="M273.18,288H261.23a1.07,1.07,0,1,1,0-2.13h11.95a1.07,1.07,0,1,1,0,2.13Z"/><path class="cls-8" d="M255.26,288H254a1.07,1.07,0,1,1,0-2.13h1.28a1.07,1.07,0,0,1,0,2.13Z"/><path class="cls-8" d="M248,288h-4.69a1.07,1.07,0,1,1,0-2.13H248a1.07,1.07,0,1,1,0,2.13Z"/><path class="cls-8" d="M239,288H227.09a1.07,1.07,0,1,1,0-2.13H239a1.07,1.07,0,1,1,0,2.13Z"/><rect class="cls-3" x="69.26" y="214.71" width="93.97" height="20.6"/><path class="cls-3" d="M278.06,452.86c.4-7.35,1.13-15.09,2.32-23.17A258.72,258.72,0,0,1,302,357.86a351.66,351.66,0,0,0-34.75,97.32c.14-.25,2.25-3.73,6.18-3.86A7.35,7.35,0,0,1,278.06,452.86Z"/><path class="cls-2" d="M404.36,518.1v11.76a6,6,0,0,1-6,6H339.07a6,6,0,0,1-6-6V518.1a6,6,0,0,1,6-6h59.31A6,6,0,0,1,404.36,518.1Z"/><path class="cls-14" d="M362.25,517.66,361.74,530l-3.79-.17.21-8.24-1.4,1-1.3-3,2.84-2.12Z"/><path class="cls-14" d="M373.67,524a6.5,6.5,0,0,1-.17,1.52,6.78,6.78,0,0,1-.49,1.46,6.12,6.12,0,0,1-.79,1.29,5.55,5.55,0,0,1-1.06,1,4.88,4.88,0,0,1-1.32.69,4.63,4.63,0,0,1-1.55.26,4.81,4.81,0,0,1-2.87-1,5.6,5.6,0,0,1-1.07-1,6.56,6.56,0,0,1-.79-1.29,7.4,7.4,0,0,1-.5-1.46,7.35,7.35,0,0,1,0-3.05,7.4,7.4,0,0,1,.5-1.46,6.64,6.64,0,0,1,.79-1.3,5.6,5.6,0,0,1,1.07-1,4.63,4.63,0,0,1,1.32-.7,4.78,4.78,0,0,1,4.42.7,5.55,5.55,0,0,1,1.06,1A6.19,6.19,0,0,1,373,521a6.78,6.78,0,0,1,.49,1.46A6.65,6.65,0,0,1,373.67,524Zm-3.67.26a3.36,3.36,0,0,0-.11-.85,2.89,2.89,0,0,0-.32-.88,2.21,2.21,0,0,0-.56-.69,1.18,1.18,0,0,0-.8-.28,1.22,1.22,0,0,0-.82.28,2.21,2.21,0,0,0-.56.69,3.2,3.2,0,0,0-.33.88,3.89,3.89,0,0,0-.11.85,4,4,0,0,0,.11.85,3.2,3.2,0,0,0,.33.88,2,2,0,0,0,.56.69,1.22,1.22,0,0,0,.82.28,1.18,1.18,0,0,0,.8-.28,2,2,0,0,0,.56-.69,2.89,2.89,0,0,0,.32-.88A3.42,3.42,0,0,0,370,524.21Z"/><path class="cls-14" d="M385,524a7.08,7.08,0,0,1-.17,1.52,7.37,7.37,0,0,1-.49,1.46,7.08,7.08,0,0,1-.79,1.29,5.6,5.6,0,0,1-1.07,1,4.88,4.88,0,0,1-1.32.69,4.57,4.57,0,0,1-1.54.26A4.64,4.64,0,0,1,378,530a4.88,4.88,0,0,1-1.32-.69,5.9,5.9,0,0,1-1.07-1,7.08,7.08,0,0,1-.79-1.29,7.37,7.37,0,0,1-.49-1.46,6.93,6.93,0,0,1,0-3.05,7.37,7.37,0,0,1,.49-1.46,7.16,7.16,0,0,1,.79-1.3,5.9,5.9,0,0,1,1.07-1,4.91,4.91,0,0,1,1.32-.7,5,5,0,0,1,1.56-.25,4.83,4.83,0,0,1,1.54.25,4.91,4.91,0,0,1,1.32.7,5.6,5.6,0,0,1,1.07,1,7.16,7.16,0,0,1,.79,1.3,7.37,7.37,0,0,1,.49,1.46A7.25,7.25,0,0,1,385,524Zm-3.68.26a3.84,3.84,0,0,0-.1-.85,3.54,3.54,0,0,0-.32-.88,2.36,2.36,0,0,0-.56-.69,1.33,1.33,0,0,0-1.63,0,2.53,2.53,0,0,0-.56.69,3.2,3.2,0,0,0-.33.88,4.54,4.54,0,0,0-.1.85,4.64,4.64,0,0,0,.1.85,3.2,3.2,0,0,0,.33.88,2.26,2.26,0,0,0,.56.69,1.33,1.33,0,0,0,1.63,0,2.13,2.13,0,0,0,.56-.69,3.54,3.54,0,0,0,.32-.88A3.9,3.9,0,0,0,381.28,524.21Z"/><path class="cls-14" d="M391.16,522.15a2.48,2.48,0,0,1-.19.92,2.7,2.7,0,0,1-.56.8,3,3,0,0,1-.88.57,3.22,3.22,0,0,1-2.34,0,3,3,0,0,1-.88-.57,2.66,2.66,0,0,1-.55-.8,2.3,2.3,0,0,1-.19-.92,2.24,2.24,0,0,1,.19-.9,2.59,2.59,0,0,1,.55-.81,3,3,0,0,1,.88-.57,3.22,3.22,0,0,1,2.34,0,3,3,0,0,1,.88.57,2.62,2.62,0,0,1,.56.81A2.42,2.42,0,0,1,391.16,522.15Zm-2,0a1,1,0,0,0-.05-.3,1,1,0,0,0-.15-.31,1.05,1.05,0,0,0-.27-.24.74.74,0,0,0-.38-.09.8.8,0,0,0-.39.09.91.91,0,0,0-.27.24,1,1,0,0,0-.16.31.79.79,0,0,0,0,.3.86.86,0,0,0,0,.3,1,1,0,0,0,.16.3.7.7,0,0,0,.27.24.71.71,0,0,0,.39.1.65.65,0,0,0,.38-.1.78.78,0,0,0,.27-.24.94.94,0,0,0,.15-.3A1.17,1.17,0,0,0,389.19,522.14Zm5.45-2.79q-1.11,2.43-2.07,4.94c-.63,1.68-1.23,3.37-1.78,5.07L389,528.7c.34-.84.68-1.68,1-2.52s.68-1.67,1-2.5.73-1.65,1.11-2.47.79-1.62,1.23-2.42Zm3.13,7.12a2.37,2.37,0,0,1-.74,1.71,2.92,2.92,0,0,1-.89.58,3.19,3.19,0,0,1-2.33,0,2.75,2.75,0,0,1-.88-.58,2.5,2.5,0,0,1-.55-.79,2.33,2.33,0,0,1-.19-.92,2.24,2.24,0,0,1,.19-.9,2.48,2.48,0,0,1,.55-.81,2.91,2.91,0,0,1,.88-.57,3.07,3.07,0,0,1,2.33,0,3.09,3.09,0,0,1,.89.57,2.33,2.33,0,0,1,.55.81A2.24,2.24,0,0,1,397.77,526.47Zm-2,0a1.18,1.18,0,0,0-.05-.31.92.92,0,0,0-.42-.54.76.76,0,0,0-.38-.09.82.82,0,0,0-.4.09.92.92,0,0,0-.42.54.89.89,0,0,0-.06.31.79.79,0,0,0,.06.29.89.89,0,0,0,.15.31.78.78,0,0,0,.27.24.82.82,0,0,0,.4.1.77.77,0,0,0,.38-.1.78.78,0,0,0,.27-.24.89.89,0,0,0,.15-.31A1,1,0,0,0,395.81,526.46Z"/><path class="cls-7" d="M345.05,512.12v23.72h-6a6,6,0,0,1-6-6V518.1a6,6,0,0,1,6-6Z"/></g></svg>